{"title":"The.Boat.That.Rocked.2009.DVDRIP.XviD-ZEKTORM","uid":5058170,"size":741152785,"categoryP":"video","categoryS":"movies","magnet":"?xt=urn:btih:cab2ff8ffb896a6bb4de194d3ccdf8a638293220&amp;dn=The.Boat.That.Rocked.2009.DVDRIP.XviD-ZEKTORM&amp;tr=udp%3A%2F%2Ftracker.openbittorrent.com%3A80&amp;tr=udp%3A%2F%2Fopen.demonii.com%3A1337&amp;tr=udp%3A%2F%2Ftracker.coppersurfer.tk%3A6969&amp;tr=udp%3A%2F%2Fexodus.desync.com%3A6969","seeders":1,"leechers":0,"uploader":"blowley","files":6,"time":1250532470,"description":"Title                            : The Boat That Rocked\nYear                             : 2009\nGenre                            : Comedy | Drama | Music | Romance\niMDB URL                         : http://www.imdb.com/title/tt1131729/\n\nComplete name                    : TBTR-ZEKTORM.avi\nFormat                           : AVI\nFile size                        : 702 MiB\nDuration                         : 2h 15mn\nOverall bit rate                 : 726 Kbps\nSubtitles                        : English (Format: srt/VobSub)\nSource                           : DVD NTSC\n\nVideo\nFormat                           : MPEG-4 Visual\nFormat profile                   : Streaming Video@L1\nCodec ID                         : XVID\nCodec ID/Hint                    : XviD\nDuration                         : 2h 15mn\nBit rate                         : 612 Kbps\nWidth                            : 720 pixels\nHeight                           : 304 pixels\nDisplay aspect ratio             : 2.35\nFrame rate                       : 23.976 fps\nResolution                       : 24 bits\nColorimetry                      : 4:2:0\nScan type                        : Progressive\nBits/(Pixel*Frame)               : 0.117\nStream size                      : 591 MiB (84%)\nWriting library                  : XviD\n\nAudio\nFormat                           : MPEG Audio\nFormat version                   : Version 1\nFormat profile                   : Layer 3\nCodec ID                         : 55\nCodec ID/Hint                    : MP3\nDuration                         : 2h 15mn\nBit rate mode                    : Variable\nBit rate                         : 101 Kbps\nMinimum bit rate                 : 128 Kbps\nChannel(s)                       : 2 channels\nSampling rate                    : 48.0 KHz\nResolution                       : 16 bits\nStream size                      : 97.9 MiB (14%)\nWriting library                  : LAME3.98r\nEncoding settings                : ABR\n","torrent":{"xt":"urn:btih:cab2ff8ffb896a6bb4de194d3ccdf8a638293220","amp;dn":"The.Boat.That.Rocked.2009.DVDRIP.XviD-ZEKTORM","amp;tr":["udp%3A%2F%2Ftracker.openbittorrent.com%3A80","udp%3A%2F%2Fopen.demonii.com%3A1337","udp%3A%2F%2Ftracker.coppersurfer.tk%3A6969","udp%3A%2F%2Fexodus.desync.com%3A6969"],"infoHash":"cab2ff8ffb896a6bb4de194d3ccdf8a638293220","infoHashBuffer":{"type":"Buffer","data":[202,178,255,143,251,137,106,107,180,222,25,77,60,205,248,166,56,41,50,32]},"announce":[],"urlList":[]}}